<svg width="20" height="16" viewBox="0 0 20 16" fill="none" xmlns="http://www.w3.org/2000/svg">
<path d="M19.7348 2.15178C19.1865 2.95387 18.5235 3.63728 17.746 4.20201C17.7542 4.31659 17.7583 4.48847 17.7583 4.71763C17.7583 5.78162 17.6028 6.84561 17.2917 7.9096C16.9807 8.9654 16.506 9.98028 15.8676 10.9542C15.2374 11.9282 14.4845 12.7917 13.6087 13.5446C12.733 14.2894 11.6772 14.8869 10.4413 15.3371C9.20544 15.779 7.88364 16 6.4759 16C4.25789 16 2.22813 15.4066 0.386614 14.2199C0.673073 14.2526 0.992269 14.269 1.3442 14.269C3.18572 14.269 4.82672 13.7042 6.26719 12.5748C5.40782 12.5584 4.63847 12.2965 3.95916 11.7891C3.27984 11.2734 2.81333 10.6187 2.55961 9.82478C2.82969 9.8657 3.07932 9.88616 3.30849 9.88616C3.66042 9.88616 4.00827 9.84115 4.35202 9.75112C3.43535 9.56287 2.67419 9.10863 2.06853 8.38839C1.47106 7.65997 1.17233 6.81696 1.17233 5.85937V5.81027C1.72888 6.12128 2.32635 6.28906 2.96474 6.31362C2.42456 5.9535 1.99487 5.48289 1.67568 4.90178C1.35648 4.32068 1.19688 3.69048 1.19688 3.01116C1.19688 2.29092 1.37694 1.62388 1.73706 1.01004C2.72739 2.22954 3.93051 3.20759 5.34644 3.9442C6.77054 4.67262 8.29286 5.07775 9.9134 5.1596C9.84792 4.84859 9.81519 4.54576 9.81519 4.25112C9.81519 3.15439 10.1999 2.22135 10.9692 1.45201C11.7467 0.674479 12.6839 0.285714 13.7806 0.285714C14.9264 0.285714 15.8922 0.703125 16.6779 1.53795C17.57 1.36607 18.4089 1.04687 19.1947 0.580357C18.8918 1.52158 18.3107 2.25 17.4513 2.76562C18.2125 2.68378 18.9737 2.47917 19.7348 2.15178Z" fill="#035755"/>
</svg>
