<svg width="23" height="16" viewBox="0 0 23 16" fill="none" xmlns="http://www.w3.org/2000/svg">
<path d="M9.42386 10.9911L15.3658 7.92187L9.42386 4.81585V10.9911ZM11.6951 0.408482C13.0701 0.408482 14.396 0.428943 15.6727 0.469865C16.9577 0.502603 17.8989 0.539434 18.4964 0.580357L19.3926 0.629464C19.4008 0.629464 19.4704 0.637648 19.6013 0.654017C19.7323 0.662202 19.8264 0.674479 19.8837 0.690847C19.941 0.699032 20.0351 0.715401 20.1661 0.739954C20.3052 0.764508 20.4239 0.797246 20.5221 0.838169C20.6203 0.879092 20.7349 0.932291 20.8658 0.997767C20.9968 1.06324 21.1236 1.14509 21.2464 1.2433C21.3692 1.33333 21.4879 1.43973 21.6024 1.5625C21.6515 1.61161 21.7129 1.68936 21.7866 1.79576C21.8684 1.89397 21.9871 2.13132 22.1426 2.50781C22.3063 2.8843 22.4168 3.29762 22.4741 3.74777C22.5396 4.27158 22.5887 4.83222 22.6214 5.42969C22.6623 6.01897 22.6869 6.4814 22.6951 6.81696V7.30804V8.97768C22.7033 10.1644 22.6296 11.3512 22.4741 12.5379C22.4168 12.9881 22.3145 13.3973 22.1672 13.7656C22.0198 14.1257 21.8889 14.3754 21.7743 14.5145L21.6024 14.7232C21.4879 14.846 21.3692 14.9565 21.2464 15.0547C21.1236 15.1447 20.9968 15.2225 20.8658 15.2879C20.7349 15.3452 20.6203 15.3943 20.5221 15.4353C20.4239 15.4762 20.3052 15.5089 20.1661 15.5335C20.0351 15.558 19.9369 15.5785 19.8714 15.5949C19.8141 15.6031 19.72 15.6153 19.589 15.6317C19.4663 15.6399 19.4008 15.644 19.3926 15.644C17.3383 15.7995 14.7724 15.8772 11.6951 15.8772C10.0009 15.8609 8.52766 15.8363 7.27543 15.8036C6.03138 15.7626 5.21293 15.7299 4.82007 15.7054L4.21851 15.6562L3.77654 15.6071C3.4819 15.5662 3.25682 15.5253 3.10132 15.4844C2.954 15.4435 2.74529 15.3575 2.4752 15.2266C2.2133 15.0956 1.98413 14.9278 1.7877 14.7232C1.7386 14.6741 1.67312 14.6004 1.59127 14.5022C1.51761 14.3958 1.39894 14.1544 1.23525 13.7779C1.07974 13.4014 0.973342 12.9881 0.916051 12.5379C0.850574 12.0141 0.797375 11.4576 0.756452 10.8683C0.723714 10.2708 0.703253 9.80432 0.695068 9.46875V8.97768V7.30804C0.686884 6.12128 0.760545 4.93452 0.916051 3.74777C0.973342 3.29762 1.07565 2.89248 1.22297 2.53237C1.37029 2.16406 1.50124 1.91034 1.61583 1.7712L1.7877 1.5625C1.90229 1.43973 2.02096 1.33333 2.14373 1.2433C2.2665 1.14509 2.39336 1.06324 2.52431 0.997767C2.65526 0.932291 2.76985 0.879092 2.86806 0.838169C2.96627 0.797246 3.08086 0.764508 3.21181 0.739954C3.35095 0.715401 3.44916 0.699032 3.50645 0.690847C3.56374 0.674479 3.65787 0.662202 3.78882 0.654017C3.91977 0.637648 3.98934 0.629464 3.99752 0.629464C6.05184 0.482143 8.61769 0.408482 11.6951 0.408482Z" fill="#035755"/>
</svg>
